<?xml version="1.0" encoding="UTF-8"?>
<svg version="1.1" xmlns="http://www.w3.org/2000/svg" width="1228" height="845">
<path d="M0 0 C36.96 0 73.92 0 112 0 C112 248.49 112 496.98 112 753 C72.07 753 32.14 753 -9 753 C-10.78740503 751.21259497 -10.12974282 748.79675823 -10.14176419 746.41584262 C-10.14074153 745.6050665 -10.13971886 744.79429037 -10.1386652 743.95894527 C-10.14150742 743.10178597 -10.14434964 742.24462667 -10.14727798 741.36149284 C-10.15568636 738.45167409 -10.15689796 735.54189483 -10.15821838 732.63206482 C-10.16277956 730.53992701 -10.16777892 728.44779011 -10.17318195 726.3556543 C-10.18682308 720.57731773 -10.1941986 714.79898708 -10.20060861 709.02063859 C-10.20858645 702.80041374 -10.22229315 696.5802013 -10.23532104 690.35998535 C-10.25712108 679.57330595 -10.27528726 668.78662677 -10.29092598 657.99993706 C-10.30734872 646.68290167 -10.32582374 635.36587272 -10.34705925 624.04884529 C-10.34837686 623.34603621 -10.34969446 622.64322714 -10.351052 621.91912081 C-10.35775378 618.35012695 -10.36449242 614.78113315 -10.37124526 611.21213938 C-10.41904944 585.91169616 -10.46222262 560.61124694 -10.50268555 535.31079102 C-10.5420132 510.7268022 -10.58343031 486.14281835 -10.62768555 461.55883789 C-10.62904808 460.80148307 -10.63041061 460.04412825 -10.63181442 459.26382328 C-10.64549942 451.65837907 -10.65922699 444.05293494 -10.67298577 436.44749086 C-10.70101475 420.95336206 -10.72875947 405.45923276 -10.7563324 389.96510315 C-10.7576006 389.25265756 -10.7588688 388.54021196 -10.76017542 387.80617711 C-10.84487754 340.20412613 -10.92293198 292.60206388 -11 245 C-11.30736588 245.50632462 -11.61473175 246.01264923 -11.93141174 246.53431702 C-13.34984368 248.86888577 -14.77061055 251.20202537 -16.19140625 253.53515625 C-16.67468384 254.33135376 -17.15796143 255.12755127 -17.65588379 255.94787598 C-20.6450597 260.85212978 -23.72011457 265.67996618 -26.9375 270.4375 C-31.2437374 276.82034008 -35.37686009 283.29931142 -39.47290039 289.81884766 C-42.73584455 295.00854707 -46.03475192 300.17224296 -49.375 305.3125 C-53.51438244 311.68619118 -57.61172844 318.08544677 -61.6875 324.5 C-68.75625624 335.62472761 -75.85898529 346.72748134 -82.96777344 357.82666016 C-86.31304949 363.05033844 -89.65643813 368.27522441 -93 373.5 C-94.33332409 375.58333925 -95.66665743 377.66667258 -97 379.75 C-97.66 380.78125 -98.32 381.8125 -99 382.875 C-106.33333333 394.33333333 -113.66666667 405.79166667 -121 417.25 C-121.66040283 418.28189453 -122.32080566 419.31378906 -123.0012207 420.37695312 C-124.33042957 422.45381154 -125.65969362 424.53063463 -126.98901367 426.60742188 C-130.38591186 431.91452872 -133.78175767 437.22230424 -137.17578125 442.53125 C-143.35734752 452.19866191 -149.5455655 461.86105365 -155.78955078 471.48828125 C-161.87510722 480.88037574 -167.89140511 490.31702658 -173.91943359 499.74609375 C-177.27786544 504.99852036 -180.63903762 510.24919244 -184 515.5 C-185.3333472 517.58332446 -186.66668051 519.6666578 -188 521.75 C-200 540.5 -200 540.5 -212 559.25 C-212.66040283 560.28189453 -213.32080566 561.31378906 -214.0012207 562.37695312 C-215.33042957 564.45381154 -216.65969362 566.53063463 -217.98901367 568.60742188 C-221.38591186 573.91452872 -224.78175767 579.22230424 -228.17578125 584.53125 C-234.35734752 594.19866191 -240.5455655 603.86105365 -246.78955078 613.48828125 C-252.87510722 622.88037574 -258.89140511 632.31702658 -264.91943359 641.74609375 C-268.27786544 646.99852036 -271.63903762 652.24919244 -275 657.5 C-276.3333472 659.58332446 -277.66668051 661.6666578 -279 663.75 C-287 676.25 -295 688.75 -303 701.25 C-303.66080566 702.28253906 -304.32161133 703.31507813 -305.00244141 704.37890625 C-306.32752574 706.44928978 -307.65271994 708.519603 -308.97802734 710.58984375 C-312.07270284 715.42427403 -315.16634881 720.25935241 -318.25592041 725.0970459 C-319.34351484 726.79989973 -320.43146951 728.50252286 -321.51953125 730.20507812 C-322.87961989 732.33352853 -324.23904228 734.46240488 -325.59765625 736.59179688 C-326.21769531 737.56181641 -326.83773437 738.53183594 -327.4765625 739.53125 C-328.01361816 740.37236328 -328.55067383 741.21347656 -329.10400391 742.08007812 C-329.72968262 743.04365234 -330.35536133 744.00722656 -331 745 C-331.49465633 746.09789935 -331.49465633 746.09789935 -331.99930573 747.21797848 C-333.4160627 749.97588022 -334.71201825 751.89224893 -337 754 C-341.68799957 755.32608893 -346.34542176 755.14009933 -351.17529297 755.02172852 C-352.62443381 755.01918796 -354.07358622 755.02061856 -355.52272034 755.02571106 C-359.4468146 755.028289 -363.36842288 754.97545862 -367.29194021 754.91254544 C-371.39576126 754.85620451 -375.49964216 754.85099086 -379.60379028 754.84031677 C-387.37086067 754.812366 -395.13678817 754.73854365 -402.90335572 754.64817137 C-411.74717926 754.54750253 -420.59105799 754.49807287 -429.43531203 754.45291245 C-447.62418883 754.35889038 -465.81200247 754.20063364 -484 754 C-482.2982061 749.52981501 -480.01021772 745.72186029 -477.375 741.75 C-476.37940988 740.23099177 -475.38467119 738.71142528 -474.390625 737.19140625 C-473.84857422 736.36398926 -473.30652344 735.53657227 -472.74804688 734.68408203 C-469.50659072 729.7069076 -466.32019162 724.69444543 -463.125 719.6875 C-457.76670163 711.30202109 -452.37341975 702.94093929 -446.93847656 694.60498047 C-441.84785231 686.78734796 -436.82393551 678.92750077 -431.80078125 671.06640625 C-428.05099125 665.19968278 -424.2899508 659.34085561 -420.5 653.5 C-415.26679814 645.43423014 -410.08923305 637.33315494 -404.91113281 629.23193359 C-401.04337037 623.18360732 -397.16020285 617.14596293 -393.25 611.125 C-389.49485514 605.34146246 -385.79701288 599.52414304 -382.125 593.6875 C-377.5292458 586.38469833 -372.85622847 579.13618626 -368.14160156 571.90966797 C-363.68226847 565.06753551 -359.27246007 558.19453537 -354.875 551.3125 C-350.4345893 544.3632468 -345.98890411 537.4180425 -341.5 530.5 C-336.97049044 523.51880901 -332.4823743 516.51153523 -328 509.5 C-323.09622003 501.82928273 -318.1779531 494.16877175 -313.22265625 486.53125 C-309.12226135 480.20423116 -305.06101682 473.852344 -301 467.5 C-294.27950891 456.98876508 -287.51873599 446.50469829 -280.72753906 436.0390625 C-274.07980869 425.79153296 -267.48290818 415.51227701 -260.90356445 405.22070312 C-256.69734931 398.64391159 -252.47178649 392.08036816 -248.22265625 385.53125 C-244.12226152 379.20423143 -240.06097833 372.85236834 -236 366.5 C-231.09622003 358.82928273 -226.1779531 351.16877175 -221.22265625 343.53125 C-217.12226152 337.20423143 -213.06097833 330.85236834 -209 324.5 C-204.09622003 316.82928273 -199.1779531 309.16877175 -194.22265625 301.53125 C-190.12226152 295.20423143 -186.06097833 288.85236834 -182 282.5 C-177.09479827 274.82705875 -172.1753163 267.16418747 -167.21826172 259.5246582 C-163.15993223 253.26299962 -159.14278791 246.97522458 -155.125 240.6875 C-149.7661559 232.30236682 -144.37342286 223.94094406 -138.93847656 215.60498047 C-133.84785231 207.78734796 -128.82393551 199.92750077 -123.80078125 192.06640625 C-119.62807498 185.53801031 -115.43518859 179.02349894 -111.21777344 172.52392578 C-107.15963294 166.26249435 -103.14262996 159.9749774 -99.125 153.6875 C-93.76473422 145.30014229 -88.37070652 136.93641098 -82.93408203 128.59838867 C-78.58640043 121.922021 -74.28895722 115.21421196 -70 108.5 C-65.19648673 100.9802686 -60.37347642 93.47458721 -55.5 86 C-48.61880854 75.4427165 -41.83246933 64.82539407 -35.04833984 54.20556641 C-31.04735977 47.9441995 -27.04035186 41.68668811 -23.03369141 35.42895508 C-19.89113732 30.52012244 -16.75027854 25.61022871 -13.61514282 20.69665527 C-12.12435971 18.36043005 -10.6326524 16.02479566 -9.14086914 13.68920898 C-8.08063672 12.02841022 -7.02175182 10.36675146 -5.96289062 8.70507812 C-5.32673828 7.70927734 -4.69058594 6.71347656 -4.03515625 5.6875 C-3.19029663 4.36298828 -3.19029663 4.36298828 -2.32836914 3.01171875 C-1 1 -1 1 0 0 Z " fill="#37B4FC" transform="translate(1082,30)"/>
<path d="M0 0 C1.64516199 -0.00298657 1.64516199 -0.00298657 3.32355958 -0.00603348 C5.12267707 -0.00166422 5.12267707 -0.00166422 6.95814037 0.00279331 C8.87565106 0.00151167 8.87565106 0.00151167 10.83189934 0.00020415 C14.37790496 -0.00203185 17.92388037 0.00196825 21.46988213 0.00698221 C25.29464252 0.01129935 29.11940119 0.00983938 32.94416332 0.00907993 C39.57008614 0.0085555 46.1959991 0.01169389 52.82191944 0.01731777 C62.40189605 0.02544368 71.9818679 0.02804911 81.56184759 0.02930576 C97.10460767 0.03149456 112.64736251 0.03815 128.19011974 0.04760838 C143.28875229 0.05678693 158.38738341 0.0638656 173.48601818 0.06811619 C174.88196169 0.06851027 174.88196169 0.06851027 176.30610607 0.06891232 C180.97478312 0.07021735 185.64346018 0.07148106 190.31213725 0.07272422 C229.04547558 0.08309148 267.77880806 0.10070514 306.51214123 0.12304783 C307.18811352 1.35045689 307.18811352 1.35045689 307.87774181 2.60266209 C309.58166664 5.69587553 311.28616315 8.78877259 312.99102306 11.88147068 C313.7228534 13.20931044 314.45446854 14.53726884 315.18584728 15.8653574 C319.74613522 24.14583906 324.34076362 32.40451096 329.01214123 40.62304783 C333.88744658 49.21393569 338.68711381 57.84432194 343.44964123 66.49804783 C350.17693264 78.72066409 356.96820604 90.90600501 363.79876232 103.07129002 C366.68500544 108.21207642 369.56788854 113.35474312 372.44964123 118.49804783 C373.02399914 119.52301365 373.59835705 120.54797947 374.19011974 121.60400486 C379.14337013 130.45013036 384.06169213 139.31546885 388.9789381 148.18164158 C392.93505922 155.3067592 396.92739764 162.41008119 400.94964123 169.49804783 C405.82286221 178.08989046 410.62229882 186.72081152 415.38714123 195.37304783 C415.89090282 196.28775852 415.89090282 196.28775852 416.40484142 197.22094822 C417.76368351 199.68846082 419.12246614 202.15600616 420.48116589 204.62359715 C428.56005667 219.29163697 436.68704813 233.93261195 444.94964123 248.49804783 C450.19595081 257.7463292 455.34769217 267.04480125 460.4742384 276.35974216 C465.70504569 285.86332658 470.97818507 295.34194033 476.28875256 304.80127048 C479.30442618 310.17493284 482.30986465 315.55393698 485.29729748 320.94336033 C485.93208019 322.08837009 486.56686291 323.23337986 487.22088146 324.41308689 C488.48634917 326.69799049 489.75021584 328.98378162 491.01238537 331.27050877 C493.99602314 336.66096603 497.01864533 342.0183656 500.16057873 347.31836033 C501.01015148 348.76130466 501.01015148 348.76130466 501.87688732 350.23339939 C502.9375911 352.0266824 504.01017476 353.8130118 505.09661388 355.59082127 C505.56373791 356.38262791 506.03086193 357.17443455 506.51214123 357.99023533 C506.92464123 358.67198826 507.33714123 359.35374119 507.76214123 360.0561533 C508.77364791 362.84372347 508.40819534 364.31116254 507.51214123 367.12304783 C506.16790295 369.62060642 506.16790295 369.62060642 504.44182873 372.27148533 C503.8001173 373.26535252 503.15840588 374.2592197 502.49724865 375.28320408 C501.8009132 376.34410252 501.10457775 377.40500095 500.38714123 378.49804783 C499.67082531 379.60277439 498.95450939 380.70750095 498.21648693 381.84570408 C496.35369733 384.71817606 494.48167949 387.58450185 492.60680676 390.44909763 C490.90018484 393.05884465 489.20062147 395.67317595 487.50042248 398.28711033 C484.98993376 402.14379387 482.47551689 405.99786813 479.95745373 409.84961033 C476.9875247 414.3932922 474.0249081 418.94157392 471.07464123 423.49804783 C470.64667248 424.15901463 470.21870373 424.81998142 469.77776623 425.50097752 C467.09366109 429.65466945 464.42781665 433.81970231 461.76995373 437.99023533 C455.11786101 448.42693081 448.44451628 458.84924809 441.63714123 469.18554783 C441.04828136 470.09014744 440.4594215 470.99474705 439.8527174 471.92675877 C439.03831188 473.1550742 439.03831188 473.1550742 438.20745373 474.40820408 C437.73323986 475.12887058 437.25902599 475.84953709 436.77044201 476.59204197 C436.35520275 477.0972739 435.93996349 477.60250584 435.51214123 478.12304783 C434.85214123 478.12304783 434.19214123 478.12304783 433.51214123 478.12304783 C431.98861544 475.38070141 430.46509299 472.63835313 428.94158459 469.89599705 C427.59481479 467.47180303 426.24796255 465.04765484 424.90105724 462.62353611 C421.48884467 456.48218014 418.07741601 450.34039275 414.66839123 444.19726658 C408.63567612 433.3282709 402.59142985 422.46607318 396.51214123 411.62304783 C389.77687051 399.61001215 383.08597336 387.57260613 376.40325451 375.53027439 C373.27469072 369.89352816 370.14331516 364.25834443 367.01214123 358.62304783 C363.24901022 351.85039328 359.48648975 345.07740363 355.72698498 338.30273533 C349.67469393 327.39860766 343.61109817 316.50115361 337.51214123 305.62304783 C330.77687051 293.61001215 324.08597336 281.57260613 317.40325451 269.53027439 C314.27469072 263.89352816 311.14331516 258.25834443 308.01214123 252.62304783 C304.24901022 245.85039328 300.48648975 239.07740363 296.72698498 232.30273533 C290.67469393 221.39860766 284.61109817 210.50115361 278.51214123 199.62304783 C270.13448033 184.68064335 261.8221211 169.70204467 253.51642895 154.71954441 C252.51586341 152.91491744 251.51491949 151.11050087 250.51385021 149.3061533 C249.27040115 147.06472013 248.02766128 144.8228933 246.78582287 142.58056736 C243.6571541 136.94184598 240.49504512 131.32402081 237.29119396 125.72778416 C236.92558109 125.08858288 236.55996822 124.4493816 236.18327618 123.79081059 C235.29317272 122.23473241 234.40269637 120.67886755 233.51214123 119.12304783 C207.1116243 119.05278088 180.71112151 118.99997331 154.31052971 118.96761131 C142.05063458 118.9521817 129.79079775 118.93116733 117.53094006 118.89672947 C106.83781909 118.86670704 96.14474038 118.84744449 85.45157844 118.84078234 C79.7963912 118.83689174 74.14132478 118.8278308 68.48617649 118.80585766 C63.14856763 118.78528902 57.81112781 118.77925462 52.47348309 118.78372478 C50.52864757 118.7829086 48.58380559 118.77706565 46.63900471 118.7654314 C30.82223731 118.67556198 14.93203074 119.72853505 -0.17535877 124.81054783 C-0.95097157 125.06473484 -1.72658436 125.31892185 -2.52570057 125.5808115 C-35.1794722 136.7164909 -61.2008855 160.53910297 -77.17535877 190.87304783 C-92.11334068 221.82343725 -94.76271301 257.79715298 -83.47003651 290.39379978 C-70.46766857 325.54224822 -46.44622438 351.11485153 -12.59332752 367.30273533 C3.91781564 374.85091044 21.65143616 376.8904597 39.51214123 379.12304783 C39.51214123 419.05304783 39.51214123 458.98304783 39.51214123 500.12304783 C11.62724439 500.12304783 11.62724439 500.12304783 2.01214123 498.49804783 C0.89814953 498.31983494 -0.21584217 498.14162205 -1.36359119 497.95800877 C-43.89869417 490.83921348 -82.43098495 473.5205444 -116.48785877 447.12304783 C-117.35797596 446.44886814 -118.22809315 445.77468845 -119.12457752 445.08007908 C-131.1173448 435.52530335 -142.67952835 424.92199882 -152.48785877 413.12304783 C-153.31028065 412.13820408 -154.13270252 411.15336033 -154.98004627 410.13867283 C-192.51160929 364.23075987 -213.05031182 307.79706824 -212.80035877 248.49804783 C-212.79820362 247.57451511 -212.79604847 246.6509824 -212.79382801 245.69946384 C-212.74128846 231.64559059 -212.25799113 217.94135408 -209.48785877 204.12304783 C-209.28918201 203.10468845 -209.09050526 202.08632908 -208.88580799 201.03711033 C-198.01246115 146.6948106 -169.22134974 92.36077216 -125.31207752 57.39257908 C-123.43268231 55.88230436 -121.58040981 54.33763063 -119.75739002 52.75976658 C-88.90009902 26.07353008 -50.09705198 9.44623885 -10.48785877 1.12304783 C-9.72486101 0.94983007 -8.96186326 0.77661232 -8.17574435 0.59814554 C-5.38979266 0.10571414 -2.8278534 -0.00113523 0 0 Z " fill="#37B4FC" transform="translate(264.48785877227783,29.876952171325684)"/>
<path d="M0 0 C22.58738808 -0.67462332 44.14470722 2.38401424 66 8 C66.73202637 8.18256348 67.46405273 8.36512695 68.21826172 8.55322266 C108.42297316 18.72414125 145.34307729 41.38124261 175 70 C175.58845703 70.56654297 176.17691406 71.13308594 176.78320312 71.71679688 C184.39833322 79.08759125 191.49545502 86.61318742 198 95 C198.78632813 95.969375 199.57265625 96.93875 200.3828125 97.9375 C227.3751287 131.78366451 243.53654233 173.45428986 250 216 C250.11859375 216.74797852 250.2371875 217.49595703 250.359375 218.26660156 C255.36185207 251.0060274 251.96737593 285.07575858 244 317 C243.71817871 318.13526123 243.71817871 318.13526123 243.43066406 319.29345703 C233.79992903 357.05246184 213.22575033 393.03916535 186.55078125 421.296875 C184.11606253 423.87700571 181.77446943 426.51901652 179.4375 429.1875 C170.95442699 438.59981422 161.06349904 446.36533783 151 454 C150.1649292 454.63639404 150.1649292 454.63639404 149.31298828 455.28564453 C103.34862932 490.03388517 47.99859209 504.21677354 -8.85473633 504.11352539 C-11.04381814 504.11324289 -13.23290005 504.11340248 -15.42198181 504.1139679 C-21.33012287 504.11425341 -27.2382434 504.10839657 -33.14637971 504.10139394 C-39.33364395 504.09511932 -45.52090873 504.09455336 -51.70817566 504.09336853 C-63.40918283 504.09026729 -75.11018059 504.08207024 -86.81118363 504.07201904 C-96.16261485 504.06416144 -105.51404476 504.05865548 -114.86547852 504.05493164 C-115.53188022 504.05466364 -116.19828193 504.05439565 -116.88487762 504.05411953 C-122.6828142 504.05180627 -128.48075083 504.04965366 -134.27868748 504.04751682 C-159.18579869 504.0381295 -184.09289006 504.01820252 -209 504 C-209 463.74 -209 423.48 -209 382 C-193.42296875 381.96261719 -177.8459375 381.92523437 -161.796875 381.88671875 C-151.90754331 381.85643018 -142.01822316 381.82539688 -132.12890625 381.79101562 C-116.44450955 381.73662489 -100.76014489 381.68520778 -85.07568359 381.65356445 C-73.65040071 381.63049997 -62.22520261 381.5970084 -50.79998708 381.55129844 C-44.7574816 381.52747971 -38.7150595 381.50867686 -32.67250824 381.50238609 C-26.96959798 381.49628351 -21.26690073 381.47609974 -15.56406975 381.44572449 C-13.48583653 381.43702637 -11.40757537 381.4332043 -9.32932472 381.43499184 C7.13888297 381.44467258 24.01770596 380.66969008 39.75 375.3125 C40.51965088 375.05903809 41.28930176 374.80557617 42.08227539 374.54443359 C73.7668874 363.68430237 101.09714829 340.04718482 116 310 C121.6860613 297.67927865 125.64319034 285.35525475 128 272 C128.19207031 270.93136719 128.38414062 269.86273437 128.58203125 268.76171875 C132.54342997 233.10913031 122.81388441 198.50594225 100.6875 170.375 C98.80019445 168.05642337 96.92396055 165.92675709 94.76953125 163.8515625 C93 162 93 162 93 160 C91.68 159.34 90.36 158.68 89 158 C89 157.34 89 156.68 89 156 C88.40646729 155.72091797 87.81293457 155.44183594 87.20141602 155.15429688 C85.16886592 154.08854365 83.55341309 152.97181851 81.77734375 151.53125 C58.89719334 133.40698419 33.15571262 123.32435633 3.9140625 122.30859375 C1 122 1 122 -1 120 C-1.24888897 117.9534626 -1.24888897 117.9534626 -1.24723816 115.38259888 C-1.25143265 114.40958832 -1.25562714 113.43657776 -1.25994873 112.43408203 C-1.25432922 111.36287109 -1.24870972 110.29166016 -1.24291992 109.18798828 C-1.24481827 108.06270721 -1.24671661 106.93742615 -1.24867249 105.77804565 C-1.25239023 102.0420647 -1.24166051 98.30627631 -1.23046875 94.5703125 C-1.22927724 91.98200503 -1.22882373 89.39369713 -1.2290802 86.8053894 C-1.22751353 81.37299712 -1.21945278 75.94067485 -1.20581055 70.50830078 C-1.19010021 64.22924077 -1.18481188 57.95024193 -1.1855461 51.67116368 C-1.18615686 45.63234758 -1.180938 39.59355642 -1.17275429 33.55474472 C-1.1695675 30.98466996 -1.16760019 28.41459339 -1.16686058 25.84451675 C-1.1646962 22.25324682 -1.15594916 18.66205416 -1.14526367 15.07080078 C-1.14571686 14.00363831 -1.14617004 12.93647583 -1.14663696 11.8369751 C-1.14237198 10.85832489 -1.13810699 9.87967468 -1.13371277 8.87136841 C-1.13203692 8.02222933 -1.13036108 7.17309025 -1.12863445 6.29821968 C-1.00399965 4.07145884 -0.61966508 2.1370521 0 0 Z " fill="#37B4FC" transform="translate(298,286)"/>
<path d="M0 0 C0.66 0.33 1.32 0.66 2 1 C-6.25 9.25 -14.5 17.5 -23 26 C-23.66 25.67 -24.32 25.34 -25 25 C-17.0857148 16.15881654 -8.84118346 7.9142852 0 0 Z " fill="#2579AA" transform="translate(139,87)"/>
</svg>
